<svg width="301" height="114" viewBox="0 0 301 114" fill="none" xmlns="http://www.w3.org/2000/svg">
<path d="M34.6199 0.600003C35.1799 0.600003 35.8599 0.980002 36.6599 1.74C37.4999 2.46 37.9199 3.08 37.9199 3.6C37.9199 6.04 37.8399 9.38 37.6799 13.62C37.6399 14.66 37.5999 15.92 37.5599 17.4C37.5199 18.84 37.4999 20.52 37.4999 22.44C37.4999 28.52 37.8599 33 38.5799 35.88C38.5399 36.84 38.1599 37.54 37.4399 37.98C36.7199 38.38 35.9999 38.58 35.2799 38.58C33.6799 38.58 32.6199 38.02 32.0999 36.9C31.6199 35.78 31.3799 34.18 31.3799 32.1C31.3799 24.38 31.4599 17.28 31.6199 10.8C27.0199 15.92 23.4399 20.22 20.8799 23.7C20.8799 23.7 20.5199 23.94 19.7999 24.42C19.1199 25.02 18.5599 25.32 18.1199 25.32C17.0799 25.32 16.2199 25.06 15.5399 24.54C14.8599 24.02 14.1999 23.26 13.5599 22.26L10.6799 18.18C8.67993 15.38 7.21993 13.26 6.29993 11.82C6.29993 15.5 6.47993 20.5 6.83993 26.82C7.11993 30.46 7.25993 33.2 7.25993 35.04C7.25993 36 7.01993 36.82 6.53993 37.5C6.05993 38.14 5.29993 38.46 4.25993 38.46C3.21993 38.46 2.35993 38.26 1.67993 37.86C1.03993 37.46 0.699932 36.86 0.659932 36.06C0.699932 35.38 0.719932 34.26 0.719932 32.7C0.719932 29.58 0.619932 25.78 0.419932 21.3L0.299932 18.06L0.179932 13.86C0.139932 12.62 0.0999318 11.18 0.059932 9.54C0.0199319 7.86 -6.80983e-05 6.04 -6.80983e-05 4.08C-6.80983e-05 1.68 1.29993 0.480004 3.89993 0.480004C4.69993 0.480004 5.49993 0.680004 6.29993 1.08C7.13993 1.48 7.75993 2.06 8.15993 2.82C8.47993 4.22 9.65993 6.54 11.6999 9.78C13.7399 13.02 15.7399 16.06 17.6999 18.9C19.4599 16.66 20.8999 14.98 22.0199 13.86C23.9399 11.9 25.5199 10.08 26.7599 8.4C28.0399 6.72 29.4199 4.7 30.8999 2.34C31.2599 1.86 31.7799 1.46 32.4599 1.14C33.1399 0.780003 33.8599 0.600003 34.6199 0.600003ZM71.7679 30.36C72.5279 30.36 73.0879 30.66 73.4479 31.26C73.8479 31.82 74.0479 32.44 74.0479 33.12C74.0479 33.96 73.9079 34.56 73.6279 34.92C73.3879 35.24 72.9079 35.58 72.1879 35.94C70.5079 36.74 68.4279 37.38 65.9479 37.86C63.4679 38.34 60.8079 38.58 57.9679 38.58C54.4079 38.58 51.7879 37.98 50.1079 36.78C48.4679 35.58 47.4479 34.14 47.0479 32.46C46.6879 30.74 46.5079 28.5 46.5079 25.74C46.5079 22.78 46.6279 19.88 46.8679 17.04C47.1079 14.16 47.5279 10.5 48.1279 6.06C48.4079 4.14 49.1679 2.76 50.4079 1.92C51.6479 1.04 53.0079 0.600003 54.4879 0.600003C55.7279 0.600003 57.7479 0.560003 60.5479 0.480004L65.7679 0.420001C67.9279 0.420001 69.4879 0.480002 70.4479 0.600003C71.6479 0.840002 72.5279 1.12 73.0879 1.44C73.6879 1.72 73.9879 2.22 73.9879 2.94C73.9879 3.74 73.7079 4.52 73.1479 5.28C72.6279 6.04 71.8279 6.42 70.7479 6.42C69.5079 6.42 67.7279 6.34 65.4079 6.18C63.0879 6.02 61.3479 5.94 60.1879 5.94C59.1879 5.94 58.2079 6 57.2479 6.12C56.1279 6.2 55.3279 6.34 54.8479 6.54C54.3679 6.74 54.0879 7.08 54.0079 7.56C53.4479 11.68 53.1679 14.72 53.1679 16.68C54.0879 16.8 54.9879 16.86 55.8679 16.86C56.9879 16.86 58.1879 16.8 59.4679 16.68C60.7479 16.56 61.5679 16.48 61.9279 16.44C64.0479 16.24 65.8679 16.14 67.3879 16.14C68.2679 16.14 68.9279 16.3 69.3679 16.62C69.8479 16.94 70.0879 17.38 70.0879 17.94C70.0879 18.82 69.8479 19.5 69.3679 19.98C68.9279 20.46 68.1279 20.82 66.9679 21.06C65.5679 21.34 63.8279 21.56 61.7479 21.72C59.7079 21.88 57.7079 21.96 55.7479 21.96C55.0679 21.96 54.1279 21.92 52.9279 21.84C52.8079 24.28 52.7479 26.54 52.7479 28.62C52.7479 31.46 54.6279 32.88 58.3879 32.88C60.3879 32.88 62.0479 32.74 63.3679 32.46C64.6879 32.18 66.2079 31.78 67.9279 31.26C69.5279 30.66 70.8079 30.36 71.7679 30.36ZM98.5134 38.58C95.8734 38.58 93.4534 38.26 91.2534 37.62C89.0534 36.94 87.2534 35.96 85.8534 34.68C83.2934 32.4 81.4934 29.92 80.4534 27.24C79.4534 24.52 78.9534 21.06 78.9534 16.86C78.9534 15.98 79.0734 15.16 79.3134 14.4C79.5934 13.6 79.9534 12.72 80.3934 11.76C80.5134 11.48 80.6934 11.04 80.9334 10.44C81.2134 9.8 81.3934 9.22 81.4734 8.7C82.2334 7.3 83.5134 5.96 85.3134 4.68C87.1534 3.4 89.1334 2.38 91.2534 1.62C93.3734 0.820002 95.2334 0.420001 96.8334 0.420001C104.553 0.420001 110.073 3.06 113.393 8.34C115.273 11.42 116.213 14.52 116.213 17.64C116.213 21.68 115.473 25.22 113.993 28.26C112.553 31.3 110.553 33.66 107.993 35.34C106.393 36.3 104.753 37.08 103.073 37.68C101.393 38.28 99.8734 38.58 98.5134 38.58ZM85.1934 21.3C85.1534 23.5 85.6134 25.32 86.5734 26.76C87.5734 28.16 89.1334 29.7 91.2534 31.38C92.8534 31.98 93.9734 32.38 94.6134 32.58C95.2534 32.78 95.9534 32.88 96.7134 32.88C99.3134 32.88 101.613 32.34 103.613 31.26C105.613 30.18 107.153 28.7 108.233 26.82C109.353 24.94 109.913 22.84 109.913 20.52C109.913 17.48 109.573 15.08 108.893 13.32C108.213 11.56 106.993 9.98 105.233 8.58C104.313 7.82 103.133 7.26 101.693 6.9C100.293 6.54 98.7934 6.36 97.1934 6.36C93.3534 6.36 90.3734 7.72 88.2534 10.44C86.1734 13.12 85.1534 16.74 85.1934 21.3ZM162.694 3.84C162.934 3 163.294 2.32 163.774 1.8C164.254 1.24 164.774 0.960001 165.334 0.960001C166.694 0.960001 167.674 1.22 168.274 1.74C168.874 2.26 169.174 3.16 169.174 4.44C169.174 4.8 168.894 5.82 168.334 7.5C167.094 11.3 165.734 16 164.254 21.6C163.894 22.88 163.594 24 163.354 24.96C163.154 25.92 162.974 26.72 162.814 27.36C161.854 31.48 161.014 34.58 160.294 36.66C160.054 37.26 159.634 37.74 159.034 38.1C158.434 38.42 157.794 38.58 157.114 38.58C156.434 38.58 155.754 38.44 155.074 38.16C154.434 37.84 153.974 37.48 153.694 37.08C152.494 34.72 150.974 31.02 149.134 25.98C147.294 20.9 145.874 16.1 144.874 11.58C143.954 15.9 142.954 19.78 141.874 23.22C140.834 26.66 139.634 30.28 138.274 34.08C138.114 34.56 137.954 35.02 137.794 35.46C137.634 35.86 137.494 36.26 137.374 36.66C137.094 37.26 136.694 37.74 136.174 38.1C135.654 38.42 135.074 38.58 134.434 38.58C133.714 38.58 133.014 38.44 132.334 38.16C131.654 37.84 131.194 37.48 130.954 37.08C130.434 36.2 129.874 34.84 129.274 33C128.714 31.16 127.954 28.58 126.994 25.26L125.494 20.16C124.454 16.84 123.554 13.44 122.794 9.96C122.034 6.48 121.654 4.4 121.654 3.72C121.654 2.88 122.074 2.22 122.914 1.74C123.754 1.22 124.594 0.960001 125.434 0.960001C125.914 0.960001 126.414 1.12 126.934 1.44C127.454 1.72 127.794 2.22 127.954 2.94C129.354 10.42 131.414 19.1 134.134 28.98C134.814 27.42 135.454 25.58 136.054 23.46C136.694 21.3 137.554 18.28 138.634 14.4C140.034 9.32 141.094 5.7 141.814 3.54C141.974 2.94 142.374 2.46 143.014 2.1C143.694 1.74 144.374 1.56 145.054 1.56C145.934 1.56 146.654 1.8 147.214 2.28C147.774 2.72 148.134 3.2 148.294 3.72L148.774 5.58C150.014 10.26 151.254 14.64 152.494 18.72C153.734 22.8 154.994 26.22 156.274 28.98C157.074 26.62 158.034 22.84 159.154 17.64L160.054 13.68C161.134 9.44 162.014 6.16 162.694 3.84ZM204.182 5.22C204.782 5.94 205.202 6.52 205.442 6.96C205.682 7.4 205.802 7.82 205.802 8.22C205.802 8.7 205.482 9.26 204.842 9.9C204.242 10.54 203.642 10.86 203.042 10.86C202.242 10.86 201.602 10.74 201.122 10.5C200.642 10.26 200.242 9.88 199.922 9.36C199.682 9 199.122 8.54 198.242 7.98C197.362 7.38 196.362 6.88 195.242 6.48C194.122 6.04 193.082 5.82 192.122 5.82C190.562 5.82 188.942 6.2 187.262 6.96C185.622 7.68 184.302 8.62 183.302 9.78C182.462 10.82 181.702 12.38 181.022 14.46C180.342 16.5 180.002 18.44 180.002 20.28C180.002 22.6 180.502 24.74 181.502 26.7C182.542 28.62 184.022 30.16 185.942 31.32C187.902 32.48 190.242 33.06 192.962 33.06C194.442 33.06 195.702 32.84 196.742 32.4C197.822 31.96 198.982 31.32 200.222 30.48C201.182 29.88 201.922 29.44 202.442 29.16C203.002 28.88 203.622 28.74 204.302 28.74C204.942 28.74 205.542 29.02 206.102 29.58C206.702 30.14 207.002 30.7 207.002 31.26C207.002 32.3 206.382 33.34 205.142 34.38C203.622 35.62 202.222 36.56 200.942 37.2C199.662 37.8 198.342 38.2 196.982 38.4C195.662 38.56 193.962 38.64 191.882 38.64C189.122 38.64 186.322 37.98 183.482 36.66C180.682 35.34 178.522 33.74 177.002 31.86C176.202 30.7 175.422 29.04 174.662 26.88C173.942 24.68 173.582 22.9 173.582 21.54C173.582 18.14 174.162 14.86 175.322 11.7C176.482 8.54 178.142 6 180.302 4.08C181.742 2.76 183.522 1.8 185.642 1.2C187.802 0.560003 189.882 0.240004 191.882 0.240004C194.442 0.240004 196.642 0.660003 198.482 1.5C200.362 2.34 202.262 3.58 204.182 5.22ZM239.917 17.04C239.877 16.4 239.857 15.44 239.857 14.16V11.88C239.857 10.36 239.817 9.22 239.737 8.46C239.657 7.82 239.617 6.16 239.617 3.48C239.617 2.52 239.897 1.78 240.457 1.26C241.057 0.700001 241.857 0.420001 242.857 0.420001C244.137 0.420001 244.997 0.700001 245.437 1.26C245.877 1.82 246.097 2.74 246.097 4.02V6.3L246.037 12.9C245.997 14.18 245.977 16.1 245.977 18.66L246.037 23.58C246.077 24.34 246.097 25.4 246.097 26.76C246.097 27.84 246.137 29.38 246.217 31.38C246.297 33.22 246.337 34.6 246.337 35.52C246.337 36.28 246.117 36.98 245.677 37.62C245.277 38.26 244.717 38.58 243.997 38.58C241.197 38.58 239.797 37.64 239.797 35.76C239.797 34.72 239.837 33.56 239.917 32.28C239.997 31.36 240.037 29.96 240.037 28.08C240.037 26.76 239.997 24.86 239.917 22.38C238.037 22.54 234.797 22.62 230.197 22.62C227.317 22.62 225.077 22.62 223.477 22.62C221.877 22.58 220.717 22.48 219.997 22.32L219.937 29.22C219.937 29.66 220.037 30.84 220.237 32.76C220.437 34.04 220.537 35.16 220.537 36.12C220.537 36.72 220.177 37.3 219.457 37.86C218.777 38.38 218.137 38.64 217.537 38.64C216.097 38.64 215.117 38.3 214.597 37.62C214.077 36.9 213.817 35.82 213.817 34.38L213.757 29.64C213.717 29.08 213.697 28.3 213.697 27.3C213.697 25.82 213.657 23.8 213.577 21.24C213.497 18.92 213.457 17.24 213.457 16.2C213.457 14.64 213.497 12.46 213.577 9.66C213.657 7.02 213.697 5.06 213.697 3.78C213.697 2.5 214.017 1.64 214.657 1.2C215.297 0.760003 216.017 0.540003 216.817 0.540003C219.057 0.540003 220.177 1.28 220.177 2.76C220.177 5.4 220.117 7.92 219.997 10.32C219.917 13.36 219.877 15.58 219.877 16.98C221.037 17.26 222.257 17.44 223.537 17.52C224.817 17.6 226.617 17.64 228.937 17.64C233.657 17.64 237.317 17.44 239.917 17.04ZM282.36 37.62C281.84 36.94 281.42 36.3 281.1 35.7C280.82 35.06 280.46 34.18 280.02 33.06C279.3 31.26 278.66 29.94 278.1 29.1C275.66 29.46 273.54 29.64 271.74 29.64C270.86 29.64 269.86 29.62 268.74 29.58C267.66 29.54 266.82 29.5 266.22 29.46C264.14 29.3 262.48 29.22 261.24 29.22C260.72 29.86 260.3 30.54 259.98 31.26C259.7 31.94 259.38 32.8 259.02 33.84C258.42 35.6 257.84 36.94 257.28 37.86C256.92 38.46 256.22 38.76 255.18 38.76C254.3 38.76 253.48 38.58 252.72 38.22C252 37.82 251.64 37.28 251.64 36.6C251.96 35.08 252.46 33.48 253.14 31.8C253.86 30.08 254.88 27.8 256.2 24.96L258.6 19.08C259.92 15.72 261.12 12.84 262.2 10.44C263.32 8.04 264.78 5.2 266.58 1.92C266.82 1.44 267.22 1.04 267.78 0.720001C268.34 0.360001 268.96 0.180001 269.64 0.180001C270.4 0.180001 270.94 0.240001 271.26 0.360002C271.62 0.440003 271.9 0.600004 272.1 0.840003C272.3 1.04 272.6 1.48 273 2.16C274.36 4.28 275.52 6.46 276.48 8.7C277.48 10.94 278.74 14.04 280.26 18L281.52 21.18C282.64 24.06 283.6 26.48 284.4 28.44C285.24 30.36 286.16 32.12 287.16 33.72C287.8 34.76 288.12 35.48 288.12 35.88C288.12 36.84 287.82 37.58 287.22 38.1C286.66 38.58 285.92 38.82 285 38.82C283.84 38.82 282.96 38.42 282.36 37.62ZM276.36 24.18C275.8 23.02 275.06 21.02 274.14 18.18C273.82 17.14 273.58 16.42 273.42 16.02C272.18 12.42 270.94 9.56 269.7 7.44C268.94 9.36 267.82 11.84 266.34 14.88C265.42 16.6 264.16 19.68 262.56 24.12C265.12 24.44 268.02 24.6 271.26 24.6C273.5 24.6 275.2 24.46 276.36 24.18ZM299.739 3.72C299.739 5.88 299.619 9.04 299.379 13.2C299.139 17.2 299.019 20.26 299.019 22.38C299.019 22.94 299.059 24.1 299.139 25.86C299.099 26.54 298.859 27.06 298.419 27.42C297.979 27.74 297.459 27.9 296.859 27.9C296.219 27.9 295.639 27.74 295.119 27.42C294.599 27.1 294.279 26.68 294.159 26.16C293.679 22.88 293.439 18.96 293.439 14.4L293.499 5.04C293.499 3.56 293.679 2.36 294.039 1.44C294.439 0.480003 295.279 3.09944e-06 296.559 3.09944e-06C297.639 3.09944e-06 298.439 0.360003 298.959 1.08C299.479 1.76 299.739 2.64 299.739 3.72ZM296.559 31.02C299.279 31.02 300.639 32.04 300.639 34.08C300.639 35.12 300.299 36.08 299.619 36.96C298.979 37.8 298.159 38.22 297.159 38.22C295.959 38.22 294.979 37.86 294.219 37.14C293.459 36.38 293.079 35.5 293.079 34.5C293.079 33.62 293.399 32.82 294.039 32.1C294.719 31.38 295.559 31.02 296.559 31.02ZM34.6199 75.6C35.1799 75.6 35.8599 75.98 36.6599 76.74C37.4999 77.46 37.9199 78.08 37.9199 78.6C37.9199 81.04 37.8399 84.38 37.6799 88.62C37.6399 89.66 37.5999 90.92 37.5599 92.4C37.5199 93.84 37.4999 95.52 37.4999 97.44C37.4999 103.52 37.8599 108 38.5799 110.88C38.5399 111.84 38.1599 112.54 37.4399 112.98C36.7199 113.38 35.9999 113.58 35.2799 113.58C33.6799 113.58 32.6199 113.02 32.0999 111.9C31.6199 110.78 31.3799 109.18 31.3799 107.1C31.3799 99.38 31.4599 92.28 31.6199 85.8C27.0199 90.92 23.4399 95.22 20.8799 98.7C20.8799 98.7 20.5199 98.94 19.7999 99.42C19.1199 100.02 18.5599 100.32 18.1199 100.32C17.0799 100.32 16.2199 100.06 15.5399 99.54C14.8599 99.02 14.1999 98.26 13.5599 97.26L10.6799 93.18C8.67993 90.38 7.21993 88.26 6.29993 86.82C6.29993 90.5 6.47993 95.5 6.83993 101.82C7.11993 105.46 7.25993 108.2 7.25993 110.04C7.25993 111 7.01993 111.82 6.53993 112.5C6.05993 113.14 5.29993 113.46 4.25993 113.46C3.21993 113.46 2.35993 113.26 1.67993 112.86C1.03993 112.46 0.699932 111.86 0.659932 111.06C0.699932 110.38 0.719932 109.26 0.719932 107.7C0.719932 104.58 0.619932 100.78 0.419932 96.3L0.299932 93.06L0.179932 88.86C0.139932 87.62 0.0999318 86.18 0.059932 84.54C0.0199319 82.86 -6.80983e-05 81.04 -6.80983e-05 79.08C-6.80983e-05 76.68 1.29993 75.48 3.89993 75.48C4.69993 75.48 5.49993 75.68 6.29993 76.08C7.13993 76.48 7.75993 77.06 8.15993 77.82C8.47993 79.22 9.65993 81.54 11.6999 84.78C13.7399 88.02 15.7399 91.06 17.6999 93.9C19.4599 91.66 20.8999 89.98 22.0199 88.86C23.9399 86.9 25.5199 85.08 26.7599 83.4C28.0399 81.72 29.4199 79.7 30.8999 77.34C31.2599 76.86 31.7799 76.46 32.4599 76.14C33.1399 75.78 33.8599 75.6 34.6199 75.6ZM71.7679 105.36C72.5279 105.36 73.0879 105.66 73.4479 106.26C73.8479 106.82 74.0479 107.44 74.0479 108.12C74.0479 108.96 73.9079 109.56 73.6279 109.92C73.3879 110.24 72.9079 110.58 72.1879 110.94C70.5079 111.74 68.4279 112.38 65.9479 112.86C63.4679 113.34 60.8079 113.58 57.9679 113.58C54.4079 113.58 51.7879 112.98 50.1079 111.78C48.4679 110.58 47.4479 109.14 47.0479 107.46C46.6879 105.74 46.5079 103.5 46.5079 100.74C46.5079 97.78 46.6279 94.88 46.8679 92.04C47.1079 89.16 47.5279 85.5 48.1279 81.06C48.4079 79.14 49.1679 77.76 50.4079 76.92C51.6479 76.04 53.0079 75.6 54.4879 75.6C55.7279 75.6 57.7479 75.56 60.5479 75.48L65.7679 75.42C67.9279 75.42 69.4879 75.48 70.4479 75.6C71.6479 75.84 72.5279 76.12 73.0879 76.44C73.6879 76.72 73.9879 77.22 73.9879 77.94C73.9879 78.74 73.7079 79.52 73.1479 80.28C72.6279 81.04 71.8279 81.42 70.7479 81.42C69.5079 81.42 67.7279 81.34 65.4079 81.18C63.0879 81.02 61.3479 80.94 60.1879 80.94C59.1879 80.94 58.2079 81 57.2479 81.12C56.1279 81.2 55.3279 81.34 54.8479 81.54C54.3679 81.74 54.0879 82.08 54.0079 82.56C53.4479 86.68 53.1679 89.72 53.1679 91.68C54.0879 91.8 54.9879 91.86 55.8679 91.86C56.9879 91.86 58.1879 91.8 59.4679 91.68C60.7479 91.56 61.5679 91.48 61.9279 91.44C64.0479 91.24 65.8679 91.14 67.3879 91.14C68.2679 91.14 68.9279 91.3 69.3679 91.62C69.8479 91.94 70.0879 92.38 70.0879 92.94C70.0879 93.82 69.8479 94.5 69.3679 94.98C68.9279 95.46 68.1279 95.82 66.9679 96.06C65.5679 96.34 63.8279 96.56 61.7479 96.72C59.7079 96.88 57.7079 96.96 55.7479 96.96C55.0679 96.96 54.1279 96.92 52.9279 96.84C52.8079 99.28 52.7479 101.54 52.7479 103.62C52.7479 106.46 54.6279 107.88 58.3879 107.88C60.3879 107.88 62.0479 107.74 63.3679 107.46C64.6879 107.18 66.2079 106.78 67.9279 106.26C69.5279 105.66 70.8079 105.36 71.7679 105.36ZM105.353 79.8C105.353 78.64 105.613 77.64 106.133 76.8C106.693 75.92 107.513 75.48 108.593 75.48C109.513 75.48 110.333 75.66 111.053 76.02C111.773 76.38 112.133 76.98 112.133 77.82C112.133 79.46 112.053 81.76 111.893 84.72C111.733 87.6 111.653 89.74 111.653 91.14C111.653 93.34 111.733 96.28 111.893 99.96C112.053 103.48 112.133 106.06 112.133 107.7C112.133 109.02 112.113 110 112.073 110.64C112.073 111.28 111.713 111.92 110.993 112.56C110.313 113.16 109.253 113.46 107.813 113.46C107.053 113.46 106.393 113.34 105.833 113.1C105.313 112.82 104.953 112.52 104.753 112.2C102.873 109.92 100.133 106.04 96.5334 100.56C92.4934 94.44 89.1934 89.76 86.6334 86.52C86.9534 89.4 87.1134 92.92 87.1134 97.08C87.1134 98.92 87.0734 101.32 86.9934 104.28C86.9534 107.2 86.8734 109.12 86.7534 110.04C86.5934 111.2 86.2334 112.1 85.6734 112.74C85.1534 113.34 84.3134 113.64 83.1534 113.64C82.2734 113.64 81.6134 113.4 81.1734 112.92C80.7734 112.4 80.5334 111.52 80.4534 110.28C80.4134 108.64 80.5134 106.18 80.7534 102.9C80.7934 102.38 80.8534 101.48 80.9334 100.2C81.0134 98.92 81.0534 97.78 81.0534 96.78C81.0534 94.02 80.9134 90.86 80.6334 87.3C80.3934 83.38 80.2734 80.48 80.2734 78.6C80.2734 77.64 80.6134 76.9 81.2934 76.38C82.0134 75.86 82.8334 75.6 83.7534 75.6C84.5534 75.6 85.3934 75.8 86.2734 76.2C89.7134 80.52 94.3734 86.96 100.253 95.52L105.893 104.16C105.933 103.52 105.953 102.62 105.953 101.46C105.953 99.42 105.913 97.22 105.833 94.86C105.753 92.5 105.693 90.9 105.653 90.06C105.453 86.18 105.353 82.76 105.353 79.8ZM127.062 78.72C127.062 79.88 127.022 81.7 126.942 84.18L126.882 88.86C126.882 92.66 127.162 95.84 127.722 98.4C128.082 100.08 128.462 101.36 128.862 102.24C129.302 103.08 129.962 104.04 130.842 105.12C131.522 105.92 132.402 106.56 133.482 107.04C134.602 107.48 135.702 107.7 136.782 107.7C138.662 107.7 140.222 107.42 141.462 106.86C142.742 106.3 143.702 105.34 144.342 103.98C145.542 101.5 146.142 98.44 146.142 94.8C146.142 92.52 146.002 89.74 145.722 86.46C145.482 82.86 145.362 80.22 145.362 78.54C145.362 77.62 145.802 76.88 146.682 76.32C147.562 75.76 148.362 75.48 149.082 75.48C150.322 75.48 151.162 75.82 151.602 76.5C152.082 77.18 152.322 77.98 152.322 78.9C152.322 80.06 152.262 81.06 152.142 81.9C152.062 82.94 152.022 83.68 152.022 84.12C152.022 85.64 152.102 88.04 152.262 91.32C152.302 92.16 152.342 93.14 152.382 94.26C152.422 95.38 152.442 96.58 152.442 97.86C152.442 100.58 151.802 103.16 150.522 105.6C149.242 108 147.442 109.94 145.122 111.42C142.802 112.9 140.162 113.64 137.202 113.64C132.602 113.64 129.062 112.42 126.582 109.98C124.102 107.5 122.422 104.06 121.542 99.66C121.022 97.06 120.682 94.1 120.522 90.78C120.402 87.46 120.342 83.26 120.342 78.18C120.342 77.54 120.642 76.94 121.242 76.38C121.882 75.82 122.562 75.54 123.282 75.54C125.802 75.54 127.062 76.6 127.062 78.72Z" fill="#364025"/>
</svg>
